<svg width="110" height="54" viewBox="0 0 110 54" fill="none" xmlns="http://www.w3.org/2000/svg">
<g clip-path="url(#clip0_3354_6633)">
<path d="M95.7177 17.4983C95.6511 17.5368 95.6147 17.6132 95.6261 17.6896C95.638 17.7669 95.695 17.8284 95.7704 17.8467C95.9619 17.8899 96.5058 18.0459 96.722 18.2383C96.8931 18.3884 97.0232 18.6788 97.091 18.8677C96.9373 18.9634 96.6463 19.1228 96.3603 19.1604C95.9418 19.2115 95.3773 18.9258 95.3726 18.9237C95.2932 18.8838 95.2003 18.903 95.1445 18.9689C95.0877 19.0351 95.0836 19.1319 95.1343 19.2024C95.1389 19.2091 95.5836 19.8488 95.4244 20.7846C95.2623 21.7342 94.5607 22.652 93.3388 23.5135C92.375 24.1931 91.4952 24.538 90.722 24.538C89.4608 24.538 88.9169 23.6205 88.8945 23.5817C88.8503 23.5053 88.7601 23.4689 88.674 23.4951C88.5893 23.5225 88.534 23.6045 88.5421 23.6934C88.5602 23.8893 88.5811 24.4537 88.4665 24.7202C88.3754 24.9295 88.1408 25.1438 87.9831 25.2677C87.8449 25.1517 87.6045 24.9252 87.4782 24.6634C87.3321 24.3549 87.3755 23.829 87.4043 23.6511C87.4186 23.5669 87.3732 23.4861 87.2963 23.4508C87.2713 23.4395 87.2451 23.4336 87.2183 23.4336C87.163 23.4336 87.1086 23.4575 87.0711 23.501C87.0609 23.5135 87.0516 23.5272 87.0443 23.5418C87.0263 23.5794 86.5752 24.4744 85.2887 24.4744C84.4375 24.4744 83.419 24.0852 82.2613 23.3191C79.5093 21.4963 80.7443 19.3059 80.7982 19.2138C80.838 19.1456 80.8316 19.059 80.7813 18.9986C80.7312 18.9362 80.6477 18.9132 80.5738 18.9383C80.5674 18.9406 79.9487 19.1604 79.58 19.1252C79.3545 19.1068 79.0731 18.9383 78.9043 18.8176C78.98 18.6526 79.133 18.3622 79.3522 18.1712C79.6088 17.9479 80.1274 17.8491 80.3055 17.8295C80.3957 17.8205 80.4664 17.7476 80.4737 17.6564C80.481 17.5666 80.4225 17.4823 80.3349 17.4584C80.327 17.4561 79.521 17.226 79.0629 16.3555C78.6063 15.4873 78.6331 14.2975 79.1432 12.8202C79.9569 10.4578 81.3016 10.105 82.0312 10.105C82.3827 10.105 82.6196 10.1846 82.6219 10.1858C82.7037 10.2132 82.7924 10.1835 82.8402 10.1129C82.8879 10.0418 82.8826 9.9479 82.8271 9.88289C82.6996 9.73537 82.3539 9.28989 82.2782 9.00242C82.2203 8.78376 82.2852 8.47239 82.342 8.27997C82.5212 8.29134 82.8509 8.33128 83.1088 8.4686C83.4065 8.62779 83.6634 9.08085 83.7373 9.24207C83.7754 9.324 83.8654 9.36831 83.9524 9.3479C84.04 9.3275 84.1008 9.2479 84.0985 9.15782C84.0979 9.14878 84.0804 8.27093 84.7963 7.53099C85.4557 6.8479 86.5132 6.50067 87.9592 6.49746C89.4306 6.49746 90.4901 6.84674 91.1076 7.53682C91.7644 8.26977 91.6774 9.15228 91.6763 9.16131C91.6666 9.24907 91.7196 9.33187 91.8031 9.36044C91.8861 9.38989 91.9792 9.35694 92.0252 9.28201C92.2047 8.9928 92.5728 8.48493 92.7963 8.35519C93.0073 8.23128 93.3472 8.20738 93.5087 8.20271C93.5506 8.3791 93.6094 8.70475 93.5541 8.99047C93.4901 9.32166 93.1336 9.70067 93.0012 9.81933C92.9349 9.87852 92.9197 9.97648 92.9631 10.0543C93.0079 10.1316 93.1001 10.1686 93.1848 10.1415C93.1921 10.1397 95.5859 9.41059 96.8489 13.0905C97.9073 16.1698 95.8077 17.4447 95.7177 17.4983ZM97.2068 12.9669C96.1941 10.0185 94.4926 9.67006 93.6155 9.69892C93.75 9.51817 93.8806 9.29338 93.9257 9.06219C94.0235 8.55228 93.841 7.97997 93.8335 7.95607C93.809 7.88172 93.7418 7.82924 93.6638 7.82545C93.6638 7.82545 93.6274 7.8237 93.5666 7.8237C93.3376 7.8237 92.9087 7.84994 92.6057 8.02749C92.4142 8.13887 92.198 8.38755 92.0246 8.617C91.9626 8.24353 91.8008 7.74615 91.3946 7.28959C90.7025 6.51204 89.5464 6.11816 87.9368 6.11816C86.4058 6.12166 85.2572 6.50825 84.5239 7.26685C84.0804 7.72633 83.8808 8.22954 83.7915 8.60271C83.6599 8.42575 83.4882 8.24207 83.2866 8.13449C82.8629 7.90884 82.3228 7.8963 82.2055 7.8963H82.2043C82.1272 7.89747 82.0588 7.94586 82.0312 8.01816C82.0207 8.04324 81.7917 8.64557 81.9121 9.0998C81.9663 9.30446 82.1039 9.54032 82.2369 9.73391C81.4454 9.67356 79.7538 9.88522 78.785 12.696C78.2385 14.2817 78.2205 15.575 78.7323 16.5409C79.0102 17.0634 79.3903 17.3855 79.6993 17.5768C79.4927 17.643 79.2698 17.7409 79.1034 17.8852C78.7114 18.2281 78.5045 18.7916 78.496 18.8155C78.4687 18.8893 78.4914 18.9736 78.5522 19.0249C78.574 19.043 79.0836 19.4666 79.5503 19.503C79.7738 19.5223 80.0692 19.4677 80.302 19.4109C80.0215 20.2077 79.7037 22.0791 82.0521 23.6342C83.2729 24.4435 84.3621 24.8532 85.2887 24.8532C86.1393 24.8532 86.684 24.5141 87.0012 24.2112C87.0126 24.4173 87.049 24.6406 87.1374 24.826C87.3618 25.2951 87.8489 25.6444 87.8693 25.6593C87.9022 25.6832 87.9403 25.6946 87.979 25.6946C88.0154 25.6946 88.0518 25.6844 88.0832 25.6628C88.1056 25.6479 88.6283 25.2975 88.8133 24.8704C88.8913 24.6896 88.9219 24.4412 88.9315 24.217C89.2688 24.5392 89.8505 24.917 90.722 24.917C91.5744 24.917 92.528 24.5497 93.557 23.8231C94.8689 22.8986 95.6229 21.8949 95.7986 20.8383C95.8958 20.2543 95.7937 19.773 95.6732 19.4462C95.8516 19.5007 96.0591 19.545 96.2573 19.545H96.2578C96.3091 19.545 96.3591 19.5418 96.4086 19.536C96.9225 19.4677 97.4064 19.1126 97.4271 19.0978C97.4897 19.0511 97.5173 18.9712 97.4969 18.8951C97.4903 18.8701 97.3209 18.261 96.972 17.9534C96.7869 17.7896 96.4784 17.6645 96.2311 17.5826C96.8585 17.043 98.1031 15.5762 97.2068 12.9669Z" fill="#DC3338"/>
<path d="M4.40813 31.6328H3.32762V27.9547H4.40813C6.03776 27.9547 6.68932 28.6264 6.70678 29.7249C6.72395 30.706 6.20916 31.6328 4.40813 31.6328ZM8.43914 29.794C8.43914 27.7658 6.96432 26.5112 4.5967 26.5112H1.64648V38.2322H3.32762V33.1456H4.03098C4.88887 33.1456 5.59165 33.4211 7.13572 35.8267L8.67951 38.2322H10.686C9.8799 37.1153 9.58861 36.7191 9.09128 35.9121C8.19935 34.4515 7.54779 33.369 6.48416 32.6628C7.73578 32.1655 8.43914 31.1515 8.43914 29.794Z" fill="#DC3338"/>
<path d="M13.4531 32.3716C13.4531 29.7941 15.392 27.9046 17.9997 27.9046C20.624 27.9046 22.5618 29.7941 22.5618 32.3716C22.5618 34.9328 20.624 36.841 17.9997 36.841C15.392 36.841 13.4531 34.9328 13.4531 32.3716ZM24.2948 32.3716C24.2948 29.1078 21.859 26.3564 17.9997 26.3564C14.2073 26.3564 11.7207 29.1238 11.7207 32.3716C11.7207 35.55 14.1398 38.3868 17.9651 38.3868C21.9274 38.3868 24.2948 35.534 24.2948 32.3716Z" fill="#DC3338"/>
<path d="M29.3261 38.2322H31.0075V32.0459L35.3476 26.5112H33.3228L30.1493 30.5512L27.01 26.5112H24.9863L29.3261 32.0276V38.2322Z" fill="#DC3338"/>
<path d="M38.5927 33.2651L40.342 29.0199L42.2294 33.2651H38.5927ZM39.7757 26.4426L34.75 38.2319H36.4658L37.9406 34.7767H42.9153L44.4754 38.2319H46.1915L40.9592 26.4426H39.7757Z" fill="#DC3338"/>
<path d="M48.748 26.5112V38.2322H55.7133V36.7191H50.4289V26.5112H48.748Z" fill="#DC3338"/>
<path d="M7.94249 49.247H10.1893V51.6549C9.38326 51.912 8.56 52.1182 7.6509 52.1182C4.87151 52.1182 2.91653 50.2797 2.91653 47.6668C2.91653 45.1237 4.88926 43.1817 7.42712 43.1817C8.83442 43.1817 10.2583 43.5768 11.6301 44.3336V42.6319C9.79503 41.8578 8.83442 41.6348 7.46233 41.6348C3.89431 41.6348 1.18359 44.2654 1.18359 47.7182C1.18359 51.1564 3.82505 53.6651 7.41053 53.6651C9.04045 53.6651 10.3098 53.3896 11.8705 52.7021V47.7351H7.94249V49.247Z" fill="#DC3338"/>
<path d="M18.3903 46.9109H17.3098V43.2342H18.3903C20.0196 43.2342 20.6715 43.9024 20.689 45.003C20.7061 45.9823 20.1913 46.9109 18.3903 46.9109ZM20.4658 47.9424C21.718 47.4438 22.4213 46.4307 22.4213 45.0715C22.4213 43.0441 20.9459 41.7908 18.5783 41.7908H15.6287V53.5103H17.3098V48.424H18.0126C18.8705 48.424 19.5738 48.6995 21.1179 51.1051L22.6617 53.5103H24.6685C23.8621 52.3937 23.5708 51.9984 23.0732 51.189C22.1809 49.7287 21.5288 48.6459 20.4658 47.9424Z" fill="#DC3338"/>
<path d="M28.9259 48.3546H33.7114V46.8432H28.9259V43.3015H33.8829V41.791H27.2441V53.5106H34.0374V51.9986H28.9259V48.3546Z" fill="#DC3338"/>
<path d="M38.7899 48.3546H43.5752V46.8432H38.7899V43.3015H43.7475V41.791H37.1094V53.5106H43.9014V51.9986H38.7899V48.3546Z" fill="#DC3338"/>
<path d="M56.2181 50.8634L48.2931 41.7905H46.9551V53.5101H48.5341V44.4873L56.3557 53.5101H57.7965V41.7905H56.2181V50.8634Z" fill="#DC3338"/>
<path d="M73.3761 49.8675L70.1171 41.7908H68.5218L65.2794 49.8675L62.0534 41.7908H60.3728L65.1078 53.6138H65.4346L69.311 44.0243L73.1532 53.6138H73.4782L78.2306 41.7908H76.5667L73.3761 49.8675Z" fill="#DC3338"/>
<path d="M82.5207 41.791H80.8398V53.5106H82.5207V41.791Z" fill="#DC3338"/>
<path d="M87.666 47.6668C87.666 45.0896 89.6561 43.1817 92.3325 43.1817C93.6877 43.1817 94.9228 43.5596 96.3627 44.401V42.5977C94.7682 41.9272 93.5509 41.6348 92.3503 41.6348C88.6257 41.6348 85.9336 44.2473 85.9336 47.8217C85.9336 50.2797 87.8551 53.6651 92.247 53.6651C94.0826 53.6651 95.3339 53.2362 96.4837 52.6336V50.7954C95.1622 51.6549 93.7212 52.1182 92.4012 52.1182C89.5872 52.1182 87.666 50.2977 87.666 47.6668Z" fill="#DC3338"/>
<path d="M108.064 41.7908V46.894H101.512V41.7908H99.8301V53.5103H101.512V48.4056H108.064V53.5103H109.745V41.7908H108.064Z" fill="#DC3338"/>
<path d="M62.3168 33.4654C62.3887 33.4027 62.4667 33.3336 62.5531 33.2529C62.639 33.1741 62.726 33.1059 62.8168 33.0499C62.9204 32.9873 63.0193 32.9383 63.1151 32.8998C63.2111 32.8622 63.3144 32.845 63.4241 32.845C63.6083 32.845 63.7623 32.8779 63.8865 32.9464C64.0111 33.0158 64.1088 33.1091 64.1804 33.2278C64.2491 33.3403 64.2986 33.4791 64.3277 33.6464C64.3582 33.8138 64.3725 33.9779 64.3725 34.1438C64.3725 34.489 64.3303 34.8269 64.2462 35.1584C64.1627 35.4884 64.0349 35.7878 63.863 36.0543C63.7084 36.3013 63.5201 36.496 63.3042 36.6418C63.0877 36.7864 62.8578 36.8593 62.611 36.8593C62.4798 36.8593 62.3608 36.8409 62.2511 36.8033C62.1437 36.7648 62.0442 36.7112 61.9572 36.6395C61.8856 36.5826 61.8259 36.5176 61.7793 36.4424C61.7328 36.3683 61.7043 36.3001 61.6952 36.2362L62.3168 33.4654ZM62.0084 31.0316L60.8027 36.3252C60.8807 36.4491 60.966 36.5631 61.0629 36.6645C61.1601 36.7648 61.2806 36.8569 61.4272 36.9374C61.5698 37.0161 61.743 37.0776 61.947 37.1231C62.151 37.1686 62.3858 37.1893 62.6538 37.1893C63.0077 37.1893 63.3441 37.1094 63.6607 36.9488C63.9779 36.7896 64.2616 36.5677 64.5142 36.2887C64.7604 36.0144 64.9565 35.6876 65.1058 35.3097C65.2542 34.9307 65.3296 34.5345 65.3296 34.1199C65.3296 33.5747 65.1946 33.1412 64.9234 32.8176C64.6536 32.4969 64.282 32.3351 63.8088 32.3351C63.6083 32.3351 63.3997 32.3817 63.1872 32.4773C62.9742 32.5721 62.7277 32.7447 62.449 32.9931H62.4295L63.136 29.8875L63.0895 29.8179L61.3641 29.9193L61.298 30.203C61.4016 30.2155 61.5023 30.2269 61.6013 30.2359C61.7008 30.245 61.7837 30.2645 61.8492 30.2928C61.9173 30.3237 61.9703 30.3692 62.0084 30.4307C62.0442 30.4922 62.0634 30.5773 62.0634 30.689C62.0634 30.7424 62.0578 30.7948 62.0477 30.8462C62.0357 30.8983 62.0238 30.9599 62.0084 31.0316Z" fill="#DC3338"/>
<path d="M69.2826 32.9992C69.4383 33.2199 69.5175 33.5511 69.5175 33.9942C69.5175 34.3502 69.4828 34.6954 69.4095 35.0333C69.3394 35.3715 69.2378 35.6718 69.1054 35.9339C68.9707 36.2027 68.7972 36.4222 68.5833 36.5974C68.3695 36.7718 68.1244 36.8595 67.8474 36.8595C67.5389 36.8595 67.3067 36.7444 67.1528 36.5155C66.9997 36.2866 66.9226 35.9487 66.9226 35.5033C66.9226 35.2234 66.9531 34.9173 67.011 34.5849C67.0698 34.2534 67.163 33.9519 67.2895 33.6808C67.4542 33.3237 67.651 33.0639 67.8788 32.9056C68.1055 32.7461 68.3491 32.6665 68.6066 32.6665C68.9014 32.6665 69.1252 32.777 69.2826 32.9992ZM67.5896 32.5861C67.2465 32.7519 66.959 32.9706 66.7253 33.2417C66.4977 33.5135 66.3135 33.8277 66.1764 34.1852C66.0397 34.5438 65.9707 34.9298 65.9707 35.3452C65.9707 35.9088 66.131 36.3572 66.4532 36.691C66.7736 37.0231 67.1935 37.1896 67.7077 37.1896C68.1524 37.1896 68.5423 37.1041 68.879 36.931C69.2163 36.7592 69.5044 36.5292 69.7433 36.2412C69.9793 35.9645 70.1589 35.6412 70.2843 35.2747C70.4074 34.9068 70.4688 34.5394 70.4688 34.1715C70.4688 33.6228 70.3125 33.1814 70.0014 32.8429C69.6895 32.5038 69.2564 32.3353 68.7044 32.3353C68.3037 32.3353 67.9321 32.4184 67.5896 32.5861Z" fill="#DC3338"/>
<path d="M74.1128 33.4987C74.1128 33.6002 74.1536 33.6946 74.2377 33.7777C74.3212 33.8631 74.4475 33.9043 74.6137 33.9043C74.7391 33.9043 74.8336 33.8815 74.9015 33.836C74.9684 33.7914 75.0298 33.7267 75.0848 33.6424C75.1316 33.5751 75.1663 33.4885 75.1913 33.385C75.2175 33.2792 75.2294 33.1836 75.2294 33.097C75.2294 32.9343 75.2128 32.8113 75.1811 32.7247C75.1465 32.6392 75.0973 32.5643 75.0298 32.4984C74.9634 32.4392 74.8846 32.397 74.7917 32.3731C74.6983 32.3468 74.604 32.3354 74.5028 32.3354C74.2965 32.3354 74.0968 32.3993 73.9059 32.5279C73.715 32.6553 73.4351 32.8795 73.0661 33.2008H73.0387C73.0387 32.9308 72.9869 32.727 72.8804 32.5917C72.7742 32.4562 72.5976 32.3879 72.347 32.3879C72.2129 32.3879 72.0522 32.4153 71.8663 32.4675C71.6774 32.5212 71.4635 32.6019 71.2208 32.711L71.1504 33.0107C71.21 32.9958 71.2924 32.9742 71.3986 32.9512C71.504 32.9273 71.591 32.9147 71.6594 32.9147C71.8366 32.9147 71.955 32.9445 72.0147 33.0048C72.0732 33.0629 72.1031 33.1815 72.1031 33.3556C72.1031 33.4258 72.0892 33.5363 72.0583 33.6856C72.0292 33.836 72.0071 33.9474 71.992 34.0226L71.3096 37.0483H72.1823L72.9357 33.706C73.1077 33.5092 73.2707 33.3512 73.424 33.2325C73.5771 33.1142 73.7136 33.0232 73.8332 32.9649C73.9542 32.9057 74.0575 32.8649 74.1416 32.8454C74.2269 32.825 74.2871 32.8148 74.327 32.8148C74.2764 32.9343 74.2281 33.0527 74.1809 33.1734C74.1361 33.2917 74.1128 33.4008 74.1128 33.4987Z" fill="#DC3338"/>
<path d="M78.9421 35.0334C78.87 35.3716 78.7684 35.6719 78.6363 35.934C78.5021 36.2028 78.3293 36.4223 78.1151 36.5976C77.9021 36.7719 77.6556 36.8597 77.3797 36.8597C77.0698 36.8597 76.8384 36.7445 76.6857 36.5156C76.5306 36.2868 76.4552 35.9489 76.4552 35.5034C76.4552 35.2235 76.484 34.9174 76.5425 34.585C76.6022 34.2535 76.6953 33.9521 76.8224 33.6809C76.9869 33.3238 77.1824 33.064 77.4112 32.9057C77.6384 32.7462 77.88 32.6666 78.1378 32.6666C78.4326 32.6666 78.6578 32.7771 78.8155 32.9993C78.9718 33.22 79.0498 33.5512 79.0498 33.9943C79.0498 34.3503 79.014 34.6955 78.9421 35.0334ZM78.235 32.3354C77.8363 32.3354 77.465 32.4185 77.121 32.5862C76.7788 32.7521 76.4904 32.9707 76.2588 33.2419C76.028 33.5136 75.8444 33.8279 75.7079 34.1853C75.572 34.5439 75.5039 34.9299 75.5039 35.3454C75.5039 35.9089 75.6642 36.3573 75.9861 36.6911C76.3068 37.0232 76.7247 37.1897 77.2403 37.1897C77.6832 37.1897 78.0738 37.1043 78.4105 36.9311C78.7469 36.7594 79.0367 36.5293 79.2747 36.2413C79.5102 35.9646 79.6912 35.6413 79.8149 35.2748C79.9382 34.9069 80.0014 34.5395 80.0014 34.1716C80.0014 33.6229 79.8451 33.1815 79.532 32.843C79.2218 32.504 78.7888 32.3354 78.235 32.3354Z" fill="#DC3338"/>
<path d="M85.0531 36.5985C84.875 36.5985 84.7478 36.5667 84.6727 36.5029C84.5965 36.439 84.5584 36.3183 84.5584 36.1411C84.5584 36.0886 84.572 35.9976 84.5965 35.8676C84.6215 35.739 84.6489 35.6104 84.68 35.483L85.372 32.4766L85.3164 32.4058L84.5005 32.4629L83.6888 35.9769C83.479 36.19 83.2695 36.348 83.0591 36.4539C82.8513 36.5577 82.6473 36.611 82.4483 36.611C82.2536 36.611 82.111 36.5495 82.022 36.4288C81.9315 36.3069 81.8866 36.1422 81.8866 35.9326C81.8866 35.8734 81.8968 35.788 81.9155 35.674C81.9361 35.5603 81.9626 35.4387 81.9929 35.3075L82.4035 33.5795C82.4285 33.4839 82.4471 33.3859 82.4602 33.2906C82.4739 33.1927 82.478 33.1174 82.478 33.0603C82.478 32.8451 82.4212 32.6801 82.3048 32.5641C82.1878 32.4469 82.0065 32.3877 81.758 32.3877C81.6457 32.3877 81.4976 32.4171 81.3128 32.4731C81.1274 32.5288 80.9147 32.6119 80.672 32.7209L80.6016 33.023C80.6612 33.0058 80.7424 32.9854 80.8475 32.9603C80.9537 32.9341 81.0401 32.9215 81.1088 32.9215C81.2848 32.9215 81.4015 32.951 81.4583 33.0081C81.515 33.065 81.5453 33.1813 81.5453 33.3565C81.5453 33.4518 81.5345 33.5533 81.5139 33.6591C81.4947 33.765 81.4685 33.8859 81.4379 34.0247L81.0765 35.5043C81.0282 35.7061 80.9997 35.8585 80.9877 35.9612C80.9746 36.0647 80.9682 36.1536 80.9682 36.2274C80.9682 36.5087 81.052 36.7352 81.2168 36.9072C81.3794 37.081 81.6108 37.1664 81.9105 37.1664C82.1055 37.1664 82.2629 37.1495 82.3854 37.1174C82.5042 37.0845 82.6401 37.0311 82.7899 36.9559C82.9174 36.89 83.046 36.8093 83.1761 36.7113C83.3053 36.6145 83.4427 36.5087 83.5855 36.3924H83.6132C83.6132 36.5894 83.674 36.7603 83.7977 36.9072C83.9205 37.0527 84.1079 37.1256 84.3611 37.1256C84.5063 37.1256 84.6663 37.0994 84.8386 37.0457C85.0115 36.9935 85.2271 36.9148 85.4852 36.8093L85.5551 36.5087C85.4954 36.5314 85.4125 36.5518 85.3033 36.5702C85.1957 36.5894 85.111 36.5985 85.0531 36.5985Z" fill="#DC3338"/>
<path d="M88.5921 36.4392C88.3776 36.5646 88.1617 36.6285 87.9449 36.6285C87.7738 36.6285 87.6335 36.5964 87.5264 36.5328C87.419 36.469 87.3332 36.3801 87.2692 36.264C87.2034 36.1492 87.1568 36.0136 87.1312 35.8599C87.1045 35.7063 87.0908 35.5355 87.0908 35.3535C87.0908 35.013 87.1408 34.676 87.2404 34.3389C87.339 34.0034 87.4685 33.7162 87.626 33.4795C87.7965 33.2282 87.9885 33.0299 88.201 32.883C88.414 32.7395 88.6404 32.6666 88.8793 32.6666C89.044 32.6666 89.1776 32.6894 89.2841 32.7325C89.3892 32.776 89.4767 32.8352 89.5445 32.9092C89.615 32.9868 89.6644 33.0742 89.6906 33.1643C89.7186 33.2564 89.7317 33.3465 89.7317 33.4328L89.2026 35.9556C89.01 36.1527 88.8077 36.313 88.5921 36.4392ZM86.0932 38.9019C86.1863 38.9666 86.3147 39.0203 86.4779 39.0602C86.6412 39.1008 86.8527 39.1203 87.1103 39.1203C87.4892 39.1203 87.8294 39.0716 88.1288 38.9748C88.43 38.8757 88.7041 38.7115 88.9532 38.4815C89.1953 38.2576 89.4095 37.9535 89.594 37.5687C89.7782 37.1838 89.931 36.7127 90.0492 36.1562L90.8328 32.4768L90.7758 32.406L89.922 32.6258C89.7998 32.5474 89.6388 32.4801 89.4415 32.4232C89.2436 32.3652 89.0321 32.3354 88.8077 32.3354C88.448 32.3354 88.102 32.4185 87.7738 32.5862C87.4441 32.7521 87.1615 32.9719 86.9267 33.2474C86.6805 33.5308 86.487 33.8541 86.3449 34.2182C86.2041 34.5827 86.134 34.957 86.134 35.3442C86.134 35.9054 86.255 36.3448 86.4983 36.6637C86.743 36.9836 87.0896 37.1439 87.5401 37.1439C87.717 37.1439 87.8782 37.1168 88.0255 37.0632C88.169 37.0118 88.3136 36.9424 88.4568 36.8585C88.5816 36.79 88.7009 36.7104 88.8132 36.6203C88.927 36.5305 89.0146 36.4599 89.0772 36.4098L89.1089 36.4188C89.0248 36.8949 88.9122 37.2853 88.7696 37.5882C88.6261 37.8897 88.4719 38.1334 88.3078 38.3133C88.1451 38.4862 87.967 38.6124 87.772 38.6911C87.5747 38.7687 87.3929 38.8072 87.2229 38.8072H87.0806C87.0562 38.7515 87.0204 38.6672 86.9691 38.5556C86.92 38.4427 86.8682 38.346 86.8158 38.2667C86.7657 38.1894 86.7011 38.1165 86.6205 38.0492C86.5393 37.9833 86.441 37.9489 86.3266 37.9489C86.1805 37.9489 86.0659 37.9958 85.9823 38.0911C85.8982 38.1862 85.8555 38.3043 85.8555 38.4439C85.8555 38.5191 85.8715 38.5967 85.9055 38.6809C85.9375 38.7617 85.9998 38.8369 86.0932 38.9019Z" fill="#DC3338"/>
<path d="M92.9192 31.0316L91.5273 37.0479H92.4018L93.1945 33.6202C93.4003 33.3902 93.6185 33.2106 93.8472 33.082C94.0757 32.9555 94.289 32.8916 94.4857 32.8916C94.6789 32.8916 94.8244 32.952 94.924 33.0738C95.0229 33.1957 95.073 33.3599 95.073 33.568C95.073 33.6339 95.061 33.7217 95.0421 33.8298C95.0217 33.938 94.9938 34.061 94.9609 34.194L94.504 35.936C94.4749 36.0476 94.4546 36.1432 94.4426 36.2272C94.4301 36.3091 94.4243 36.3855 94.4243 36.4537C94.4243 36.6429 94.4869 36.8033 94.6103 36.9319C94.736 37.0604 94.9208 37.1255 95.1704 37.1255C95.329 37.1255 95.4853 37.0992 95.641 37.0479C95.7952 36.9966 96.0135 36.9147 96.2937 36.8033L96.3633 36.5039C96.3051 36.5255 96.2192 36.547 96.1095 36.5677C95.9989 36.5881 95.9148 36.5983 95.8561 36.5983C95.6803 36.5983 95.5522 36.5666 95.4745 36.5027C95.3971 36.4389 95.3578 36.3182 95.3578 36.1409C95.3578 36.0692 95.3727 35.9677 95.4 35.8392C95.428 35.7091 95.4556 35.5954 95.4807 35.4963L95.8726 33.9972C95.909 33.8584 95.9364 33.7158 95.9538 33.5724C95.9704 33.429 95.9789 33.3301 95.9789 33.2733C95.9789 32.9943 95.8953 32.7666 95.7298 32.5948C95.5621 32.4217 95.3308 32.3351 95.0348 32.3351C94.7153 32.3351 94.4319 32.4013 94.181 32.5345C93.9302 32.6651 93.6464 32.8622 93.3287 33.1196H93.3098L94.0576 29.8875L94.0087 29.8179L92.268 29.9193L92.2022 30.203C92.3055 30.2155 92.4105 30.2269 92.5144 30.2359C92.6177 30.245 92.6992 30.2645 92.7589 30.2928C92.8276 30.3237 92.8817 30.3692 92.9181 30.4307C92.9568 30.491 92.9745 30.5762 92.9745 30.689C92.9745 30.7459 92.9699 30.7983 92.9597 30.8485C92.9477 30.8983 92.9338 30.9587 92.9192 31.0316Z" fill="#DC3338"/>
<path d="M100.443 36.5156C100.29 36.2868 100.212 35.9489 100.212 35.5034C100.212 35.2235 100.244 34.9174 100.301 34.585C100.36 34.2535 100.453 33.9521 100.58 33.6809C100.744 33.3238 100.941 33.064 101.168 32.9057C101.397 32.7462 101.639 32.6666 101.896 32.6666C102.192 32.6666 102.417 32.7771 102.573 32.9993C102.729 33.22 102.807 33.5512 102.807 33.9943C102.807 34.3503 102.773 34.6955 102.701 35.0334C102.63 35.3716 102.527 35.6719 102.394 35.934C102.261 36.2028 102.087 36.4223 101.872 36.5976C101.66 36.7719 101.415 36.8597 101.138 36.8597C100.828 36.8597 100.598 36.7445 100.443 36.5156ZM102.169 36.9311C102.507 36.7594 102.795 36.5293 103.033 36.2413C103.268 35.9646 103.449 35.6413 103.573 35.2748C103.697 34.9069 103.759 34.5395 103.759 34.1716C103.759 33.6229 103.604 33.1815 103.291 32.843C102.979 32.504 102.547 32.3354 101.995 32.3354C101.594 32.3354 101.222 32.4185 100.88 32.5862C100.536 32.7521 100.249 32.9707 100.016 33.2419C99.7858 33.5136 99.6025 33.8279 99.4666 34.1853C99.3304 34.5439 99.2617 34.9299 99.2617 35.3454C99.2617 35.9089 99.4218 36.3573 99.7439 36.6911C100.064 37.0232 100.482 37.1897 100.998 37.1897C101.443 37.1897 101.833 37.1043 102.169 36.9311Z" fill="#DC3338"/>
<path d="M107.255 29.9887C107.001 30.1027 106.77 30.2587 106.569 30.4581C106.364 30.6604 106.18 30.9065 106.02 31.1957C105.858 31.4846 105.74 31.8103 105.665 32.1712L105.598 32.4878H104.698L104.601 32.9144H105.512L104.653 36.9444C104.528 37.5103 104.382 37.9464 104.213 38.2514C104.043 38.5552 103.839 38.717 103.599 38.7362C103.559 38.6704 103.511 38.5928 103.457 38.5027C103.403 38.4129 103.354 38.3424 103.31 38.289C103.253 38.224 103.189 38.1695 103.115 38.126C103.043 38.0829 102.958 38.0613 102.861 38.0613C102.71 38.0613 102.593 38.1118 102.512 38.215C102.432 38.3164 102.391 38.4357 102.391 38.5701C102.391 38.7284 102.456 38.8604 102.585 38.9639C102.714 39.0677 102.913 39.1199 103.188 39.1199C103.686 39.1199 104.168 38.9016 104.637 38.4631C105.107 38.0249 105.416 37.459 105.561 36.7692L106.382 32.9144H107.541L107.64 32.4878H106.468L106.573 31.9945C106.704 31.3572 106.854 30.9018 107.018 30.6275C107.182 30.3543 107.374 30.2132 107.588 30.203C107.644 30.2873 107.69 30.3634 107.728 30.4319C107.765 30.5001 107.815 30.5727 107.876 30.6502C107.933 30.7185 107.997 30.7744 108.068 30.8152C108.139 30.8575 108.223 30.8791 108.321 30.8791C108.482 30.8791 108.602 30.8278 108.678 30.7243C108.753 30.6205 108.791 30.5036 108.791 30.3692C108.791 30.2109 108.727 30.08 108.599 29.975C108.469 29.8703 108.268 29.8179 107.996 29.8179C107.759 29.8179 107.512 29.875 107.255 29.9887Z" fill="#DC3338"/>
<path d="M0.165291 10.2456C0.0401588 9.85636 0 9.62866 0 9.62866C0 9.62866 0.0317196 9.85753 0.165291 10.2456Z" fill="#DC3338"/>
<path d="M29.5526 20.6391C47.2731 18.5321 68.3201 2.44962 87.3015 1.72659C107.49 0.958365 108.546 19.8126 108.546 19.8126C108.546 19.8126 109.845 -0.385076 86.3426 0.00559517C65.316 0.3537 42.2565 20.0018 22.1657 19.4724C4.55147 19.0079 0.883635 12.3307 0.166016 10.2453C1.02856 12.9438 5.93433 23.4453 29.5526 20.6391Z" fill="#DC3338"/>
<path d="M94.4921 16.3278C94.3739 16.5669 94.0014 17.1234 93.0883 17.1234C93.0513 17.1234 93.0138 17.1234 92.9756 17.1211C92.1396 17.0815 91.2965 16.7138 91.2878 16.7103C91.2686 16.7013 91.2573 16.6806 91.2607 16.659C91.2622 16.65 91.4135 15.6561 91.218 14.9383C91.0218 14.2205 90.2902 13.4094 90.2827 13.4016C90.2678 13.3844 90.2664 13.3593 90.2798 13.3412C90.3141 13.2949 91.1248 12.2071 91.8605 11.9237C92.5822 11.645 93.1689 11.7252 93.443 12.1316C93.6173 12.3911 93.7419 13.052 93.8417 13.5829C93.8906 13.8427 93.9325 14.0669 93.97 14.1882C93.995 14.2677 94.0445 14.3987 94.1024 14.5497C94.3224 15.1261 94.6547 15.9975 94.4921 16.3278ZM93.4229 19.7386C93.2399 19.9943 92.6622 20.3441 92.1975 20.6252C91.9755 20.7593 91.7831 20.8756 91.6845 20.9508C91.6172 21.0022 91.5125 21.0955 91.3908 21.2024C90.9447 21.5963 90.2702 22.1905 89.8994 22.1905C89.8875 22.1905 89.8767 22.1905 89.866 22.1893C89.5834 22.1596 88.8949 21.9899 88.5943 21.043C88.3382 20.2438 88.3891 19.3229 88.3897 19.3135C88.3908 19.292 88.4063 19.2739 88.4272 19.2704C88.4374 19.268 89.4184 19.0645 90.0222 18.6296C90.6237 18.196 91.126 17.2246 91.131 17.2156C91.1411 17.1952 91.1636 17.1861 91.1863 17.1917C91.2413 17.2077 92.5435 17.589 93.0644 18.1812C93.5803 18.7651 93.711 19.3331 93.4229 19.7386ZM88.1368 17.9304C88.1368 17.9304 88.154 18.1138 88.1147 18.2039C88.0754 18.296 87.9529 18.3768 87.9529 18.3768C87.9529 18.3768 87.8394 18.296 87.7899 18.1914C87.7387 18.0855 87.7684 17.9167 87.7684 17.9167L87.7672 17.9179C87.7672 17.9179 87.4841 18.5112 86.5325 17.8803C85.814 17.4059 86.1609 16.8173 86.1609 16.8173C86.1609 16.8173 85.9892 16.8832 85.8932 16.8695C85.793 16.8546 85.6833 16.7593 85.6833 16.7593C85.6833 16.7593 85.7299 16.6284 85.8172 16.552C85.9062 16.4745 86.0744 16.4575 86.0744 16.4575C86.0744 16.4575 85.4048 16.2777 85.7532 15.2651C86.0576 14.3826 86.6602 14.5946 86.6602 14.5946C86.6602 14.5946 86.5389 14.4555 86.5179 14.3599C86.4952 14.2622 86.5462 14.1243 86.5462 14.1243C86.5462 14.1243 86.6841 14.1231 86.7874 14.178C86.8893 14.2313 86.9608 14.3873 86.9608 14.3873C86.9608 14.3873 86.9405 13.6928 87.9444 13.6905C88.9833 13.6884 88.901 14.3919 88.901 14.3919C88.901 14.3919 89.0209 14.2007 89.1061 14.1505C89.1932 14.0992 89.3387 14.1083 89.3387 14.1083C89.3387 14.1083 89.3823 14.2406 89.359 14.3543C89.3387 14.4692 89.2109 14.5832 89.2109 14.5832C89.2109 14.5832 89.8357 14.3806 90.1622 15.3322C90.4372 16.1296 89.866 16.4619 89.866 16.4619C89.866 16.4619 90.0455 16.5042 90.1186 16.5689C90.1936 16.6351 90.2326 16.775 90.2326 16.775C90.2326 16.775 90.1209 16.8581 90.0062 16.8742C89.891 16.889 89.7379 16.8115 89.7379 16.8115C89.7379 16.8115 90.1209 17.3421 89.2892 17.9284C88.4648 18.5089 88.1368 17.9304 88.1368 17.9304ZM87.2879 21.4094C86.9585 21.9549 86.5575 22.2541 86.158 22.2541C86.0739 22.2541 85.9898 22.2406 85.9086 22.2144C85.6112 22.1153 85.1071 21.6657 84.7018 21.3036C84.5077 21.1307 84.3401 20.9815 84.2379 20.9086C84.1701 20.8608 84.0514 20.789 83.9149 20.7048C83.3885 20.3838 82.5923 19.8966 82.5187 19.5357C82.4628 19.2567 82.4215 18.5476 83.2345 17.9794C83.9213 17.4981 84.815 17.2736 84.824 17.2715C84.8452 17.268 84.8668 17.2759 84.877 17.2943C84.8816 17.3033 85.3661 18.1823 85.9575 18.6296C86.5508 19.078 87.6249 19.2715 87.636 19.2739C87.6587 19.2771 87.6744 19.2966 87.675 19.3194C87.6761 19.3774 87.6988 20.7345 87.2879 21.4094ZM81.3296 16.0226C81.3375 15.7086 81.6174 15.096 81.8429 14.6036C81.9521 14.3651 82.0463 14.1596 82.0856 14.0401C82.113 13.9587 82.1482 13.8205 82.1898 13.6599C82.3426 13.0651 82.5731 12.1663 82.8958 11.9922C83.0355 11.9159 83.2628 11.8252 83.552 11.8252C83.9053 11.8252 84.2542 11.9581 84.5889 12.2208C85.2494 12.7395 85.7252 13.529 85.7299 13.5371C85.7412 13.5552 85.7383 13.5791 85.7235 13.5937C85.7162 13.6019 85.019 14.3229 84.7643 15.0214C84.5103 15.7196 84.6389 16.8057 84.6407 16.8173C84.6427 16.8401 84.6296 16.8605 84.6081 16.8672C84.599 16.8707 83.7094 17.1599 82.9726 17.1599C82.7925 17.1599 82.6333 17.1427 82.4997 17.1089C81.7457 16.9173 81.3191 16.5211 81.3296 16.0226ZM85.8568 9.75871C85.97 9.72051 86.1422 9.70156 86.3838 9.70156C86.6899 9.70156 87.0496 9.7313 87.3671 9.75754C87.6045 9.77678 87.8097 9.7934 87.9392 9.7934L87.9753 9.79282C88.0579 9.79049 88.1953 9.77678 88.3545 9.76075C88.6461 9.73247 89.0447 9.69253 89.3934 9.69253C89.797 9.69253 90.0522 9.74501 90.1741 9.85317C90.3857 10.0421 90.8443 10.5829 90.5373 11.5266C90.2783 12.3258 89.7004 13.0441 89.6948 13.0508C89.68 13.068 89.6573 13.0724 89.6384 13.0645C89.6294 13.0599 88.7136 12.6503 87.9724 12.6503C87.2303 12.6503 86.2552 13.143 86.2456 13.1476C86.2389 13.1517 86.2313 13.1535 86.224 13.1535C86.2098 13.1535 86.1961 13.1465 86.1871 13.1351C86.1513 13.0896 85.319 12.0191 85.2381 11.2328C85.1607 10.4564 85.3859 9.91906 85.8568 9.75871ZM94.545 17.3637C95.0168 16.9788 96.1118 15.8086 95.3712 13.6529C94.5721 11.3272 93.1962 10.9803 92.4475 10.9803C92.3933 10.9803 92.3433 10.9823 92.2982 10.9852C92.4286 10.8316 92.5848 10.6091 92.6293 10.3803C92.7065 9.98174 92.5615 9.53334 92.5554 9.51498L92.5348 9.45288L92.4702 9.44996C92.4702 9.44996 92.4446 9.4485 92.4012 9.4485C92.2214 9.4485 91.8844 9.46891 91.6487 9.60506C91.4799 9.7039 91.3117 9.96745 91.1918 10.1911C91.1516 9.89311 91.0306 9.47299 90.6886 9.08815C90.1412 8.47328 89.2228 8.16162 87.9398 8.16162C86.7199 8.16425 85.8076 8.47008 85.2262 9.07095C84.8214 9.4899 84.6747 9.95433 84.6223 10.2532C84.5144 10.0876 84.3543 9.88844 84.1588 9.78378C83.8296 9.60739 83.4048 9.59748 83.3116 9.59748H83.3105L83.2459 9.59865L83.2235 9.65958C83.2162 9.67941 83.0497 10.1438 83.1303 10.494C83.1752 10.6887 83.3314 10.9261 83.4571 11.094C83.3765 11.0826 83.2799 11.0747 83.172 11.0747C82.5169 11.0747 81.313 11.3809 80.605 13.4345C80.1696 14.6952 80.1534 15.7278 80.5549 16.5042C80.8206 17.0176 81.2062 17.2931 81.4638 17.4307C81.2772 17.4867 81.0368 17.5812 80.8637 17.729C80.5602 17.9852 80.3623 18.329 80.3544 18.3438L80.3134 18.4144L80.3783 18.4657C80.3975 18.4806 80.8459 18.8243 81.1975 18.8721C81.4035 18.9007 81.6811 18.8459 81.8674 18.7981C81.6448 19.3409 81.247 20.8928 83.2197 22.1995C84.1963 22.8462 85.0652 23.1742 85.8021 23.1742C86.5604 23.1742 87.008 22.8325 87.2388 22.573C87.237 22.7651 87.2585 22.9998 87.3476 23.1844C87.5228 23.5508 87.904 23.8252 87.9206 23.8366L87.9735 23.8742L88.0274 23.8377C88.0451 23.8264 88.4528 23.552 88.594 23.2232C88.6688 23.0476 88.6862 22.7823 88.6868 22.5777C88.9283 22.8427 89.4108 23.2252 90.1896 23.2252C90.8659 23.2252 91.6248 22.9328 92.4457 22.3532C94.6757 20.78 94.3914 19.2167 94.1804 18.6421C94.3716 18.7127 94.6553 18.7914 94.8928 18.7593C95.2848 18.708 95.6546 18.5351 95.6701 18.5284L95.7422 18.494L95.7207 18.4167C95.7143 18.3952 95.5665 17.8724 95.2979 17.6357C95.1276 17.4855 94.7808 17.4036 94.545 17.3637Z" fill="#DC3338"/>
</g>
<defs>
<clipPath id="clip0_3354_6633">
<rect width="110" height="54" fill="white"/>
</clipPath>
</defs>
</svg>
