<svg xmlns="http://www.w3.org/2000/svg" version="1.1" xmlns:xlink="http://www.w3.org/1999/xlink" xmlns:svgjs="http://svgjs.dev/svgjs" width="38.35" height="38.35"><svg id="SvgjsSvg1003" data-name="Layer 2" xmlns="http://www.w3.org/2000/svg" viewBox="0 0 38.35 38.35"><defs><style>.cls-2{stroke-width:0;fill:#fff}</style></defs><g id="SvgjsG1002" data-name="Layer 1"><path style="stroke-width:0;fill:#ed1c24" d="M0 0h38.35v38.35H0z"></path><path class="cls-2" d="M33.66 22.11a.35.35 0 0 0-.17.36c.02.14.13.26.27.29a5.2 5.2 0 0 1 1.79.73c.32.28.57.83.69 1.18a3.8 3.8 0 0 1-1.37.55c-.79.1-1.85-.44-1.86-.44a.36.36 0 0 0-.43.08.36.36 0 0 0-.02.44c0 .01.84 1.21.55 2.97-.3 1.78-1.62 3.5-3.92 5.12-1.81 1.27-3.47 1.92-4.92 1.92-2.37 0-3.39-1.72-3.44-1.79a.35.35 0 0 0-.41-.16.36.36 0 0 0-.25.37c.03.37.07 1.43-.14 1.92-.17.39-.61.79-.91 1.03a3.84 3.84 0 0 1-.95-1.13 4.03 4.03 0 0 1-.14-1.9.36.36 0 0 0-.2-.38.4.4 0 0 0-.15-.03c-.1 0-.21.04-.28.13a.22.22 0 0 0-.05.08c-.03.07-.88 1.75-3.3 1.75-1.6 0-3.51-.73-5.69-2.17-5.17-3.42-2.85-7.52-2.75-7.7a.36.36 0 0 0-.03-.4.34.34 0 0 0-.39-.11c-.01 0-1.18.42-1.87.35a2.95 2.95 0 0 1-1.27-.58c.14-.31.43-.85.84-1.21.48-.42 1.46-.6 1.79-.64.17-.02.3-.15.32-.32a.36.36 0 0 0-.26-.37 4.3 4.3 0 0 1-2.39-2.07c-.86-1.63-.81-3.86.15-6.63 1.53-4.43 4.06-5.09 5.43-5.09.66 0 1.11.15 1.11.15.15.05.32 0 .41-.14a.36.36 0 0 0-.02-.43A5.69 5.69 0 0 1 8.4 6.19c-.11-.41.01-.99.12-1.35.34.02.96.1 1.44.35.56.3 1.04 1.15 1.18 1.45.07.15.24.24.4.2a.36.36 0 0 0 .27-.36c0-.02-.03-1.66 1.31-3.05 1.24-1.28 3.23-1.93 5.95-1.94 2.77 0 4.76.65 5.92 1.95 1.23 1.37 1.07 3.03 1.07 3.05-.02.16.08.32.24.37.16.06.33 0 .42-.15a6.94 6.94 0 0 1 1.45-1.74c.4-.23 1.04-.28 1.34-.29.08.33.19.94.09 1.48-.12.62-.79 1.33-1.04 1.55a.36.36 0 0 0-.07.44c.08.14.26.21.42.16.01 0 4.51-1.37 6.89 5.53 1.99 5.77-1.96 8.16-2.13 8.26Zm2.8-8.5c-1.9-5.53-5.1-6.18-6.75-6.13.25-.34.5-.76.58-1.19.18-.96-.16-2.03-.17-2.07a.34.34 0 0 0-.32-.24h-.18a3.9 3.9 0 0 0-1.81.38c-.36.21-.77.67-1.09 1.11a5 5 0 0 0-1.18-2.49c-1.3-1.46-3.47-2.2-6.5-2.2-2.88 0-5.04.73-6.42 2.15a5.45 5.45 0 0 0-1.38 2.5 3.08 3.08 0 0 0-.95-.88 4.84 4.84 0 0 0-2.03-.45.37.37 0 0 0-.33.23 3.9 3.9 0 0 0-.22 2.03c.1.38.36.83.61 1.19-1.49-.11-4.67.28-6.49 5.55-1.03 2.97-1.06 5.4-.1 7.21a5.06 5.06 0 0 0 1.82 1.94c-.39.12-.81.31-1.12.58a4.64 4.64 0 0 0-1.14 1.74c-.05.14 0 .3.11.39.04.03 1 .83 1.88.9.42.04.98-.07 1.41-.17-.53 1.49-1.12 5 3.29 7.92 2.29 1.52 4.34 2.29 6.08 2.29 1.6 0 2.62-.64 3.22-1.2.02.39.09.81.26 1.15.42.88 1.34 1.53 1.38 1.56.06.04.13.07.21.07.07 0 .14-.02.2-.06.04-.03 1.02-.68 1.37-1.49.15-.34.2-.8.22-1.22.63.6 1.73 1.31 3.37 1.31s3.4-.69 5.33-2.05c2.47-1.73 3.88-3.61 4.21-5.6.18-1.09 0-2-.24-2.61.34.1.73.19 1.1.19.1 0 .19 0 .28-.02a4.68 4.68 0 0 0 1.91-.82.35.35 0 0 0 .13-.38 4.14 4.14 0 0 0-.99-1.77 4.43 4.43 0 0 0-1.39-.7c1.18-1.01 3.52-3.76 1.83-8.65Z"></path><path class="cls-2" d="M31.36 19.91c-.22.45-.92 1.49-2.64 1.49h-.21a10.1 10.1 0 0 1-3.17-.77c-.04-.02-.06-.06-.05-.1 0-.02.29-1.88-.08-3.23a8.76 8.76 0 0 0-1.76-2.88.08.08 0 0 1 0-.11c.06-.09 1.59-2.13 2.97-2.66 1.36-.52 2.46-.37 2.97.39.33.49.56 1.73.75 2.72.09.49.17.91.24 1.13l.25.68c.41 1.08 1.04 2.71.73 3.33Zm-2.01 6.4c-.34.48-1.43 1.14-2.3 1.66-.42.25-.78.47-.96.61l-.55.47c-.84.74-2.11 1.85-2.8 1.85h-.06c-.53-.06-1.83-.37-2.39-2.15a9.97 9.97 0 0 1-.38-3.24c0-.04.03-.07.07-.08.02 0 1.86-.39 3-1.2a8.7 8.7 0 0 0 2.08-2.65c.02-.04.06-.06.1-.04.1.03 2.55.74 3.53 1.85.97 1.09 1.22 2.16.67 2.92Zm-9.94-3.39s.03.34-.04.51c-.07.17-.3.32-.3.32s-.21-.15-.31-.35c-.1-.2-.04-.51-.04-.51s-.53 1.11-2.32-.07c-1.35-.89-.7-1.99-.7-1.99s-.32.12-.5.1c-.19-.03-.39-.21-.39-.21s.09-.25.25-.39c.17-.15.48-.18.48-.18s-1.26-.34-.6-2.24c.57-1.65 1.71-1.26 1.71-1.26s-.23-.26-.27-.44c-.04-.18.05-.44.05-.44s.26 0 .45.1.33.39.33.39-.04-1.3 1.85-1.31c1.95 0 1.8 1.31 1.8 1.31s.23-.36.39-.45c.16-.1.44-.08.44-.08s.08.25.04.46c-.04.22-.28.43-.28.43s1.17-.38 1.79 1.4c.52 1.49-.56 2.12-.56 2.12s.34.08.47.2c.14.12.21.39.21.39s-.21.16-.43.19-.5-.12-.5-.12.72.99-.84 2.09c-1.55 1.09-2.17 0-2.17 0Zm-1.6 6.52c-.62 1.02-1.37 1.58-2.12 1.58-.16 0-.32-.03-.47-.07-.56-.19-1.51-1.03-2.27-1.71-.36-.32-.68-.6-.87-.74l-.61-.38c-.99-.6-2.49-1.51-2.62-2.19-.11-.52-.18-1.85 1.35-2.92 1.29-.9 2.97-1.32 2.99-1.33.04 0 .08 0 .1.04 0 .02.92 1.66 2.03 2.5 1.12.84 3.13 1.2 3.16 1.21.04 0 .07.04.07.09 0 .11.04 2.65-.73 3.92Zm-11.2-10.1c.01-.59.54-1.74.97-2.66.21-.45.38-.83.46-1.06l.2-.71c.29-1.11.72-2.8 1.33-3.13.26-.14.69-.31 1.23-.31.66 0 1.32.25 1.95.74a10.4 10.4 0 0 1 2.15 2.47.1.1 0 0 1-.01.11c-.01.02-1.32 1.37-1.8 2.68a8.76 8.76 0 0 0-.23 3.37c0 .04-.02.08-.06.09-.02 0-1.69.55-3.07.55-.34 0-.64-.03-.89-.1-1.42-.36-2.22-1.1-2.2-2.04ZM15.12 7.6c.21-.07.54-.11.99-.11.58 0 1.25.06 1.85.1.45.04.83.07 1.08.07h.07c.16 0 .41-.03.71-.06.55-.05 1.3-.13 1.95-.13.76 0 1.24.1 1.47.3.4.35 1.26 1.37.68 3.14-.49 1.5-1.57 2.84-1.58 2.86-.03.03-.07.04-.11.03-.02 0-1.74-.78-3.13-.78s-3.23.92-3.25.93l-.04.01a.1.1 0 0 1-.07-.03c-.07-.09-1.63-2.09-1.78-3.57-.15-1.46.28-2.46 1.16-2.76Zm16.34 14.26c.89-.72 2.95-2.92 1.55-6.96-1.5-4.36-4.09-5.01-5.5-5.01h-.28c.25-.29.54-.71.62-1.13a3.78 3.78 0 0 0-.14-1.62l-.04-.12h-.25c-.34 0-.97.04-1.41.29-.32.19-.63.68-.86 1.1a3.86 3.86 0 0 0-.95-2.07c-1.03-1.15-2.76-1.74-5.17-1.74-2.29 0-4.01.58-5.1 1.7a4.3 4.3 0 0 0-1.14 2.22c-.2-.31-.5-.68-.87-.88a3.75 3.75 0 0 0-1.59-.35h-.12l-.04.12c-.01.04-.33.91-.18 1.56.08.37.38.81.61 1.12a3.99 3.99 0 0 0-.54-.04c-1.23 0-3.49.57-4.83 4.42-.82 2.36-.85 4.3-.09 5.75a4.1 4.1 0 0 0 1.71 1.74c-.35.1-.8.28-1.13.56-.57.48-.94 1.12-.96 1.15l-.08.13.12.1s.88.67 1.54.76c.39.05.91-.05 1.26-.14-.42 1.02-1.17 3.93 2.54 6.38 1.84 1.21 3.47 1.83 4.85 1.83s2.27-.64 2.7-1.13c0 .36.04.8.2 1.15.33.69 1.05 1.2 1.08 1.22l.1.07.1-.07s.8-.54 1.07-1.15c.14-.33.17-.83.17-1.21.45.5 1.36 1.21 2.82 1.21 1.27 0 2.7-.55 4.24-1.63 4.19-2.95 3.66-5.88 3.26-6.96.36.13.89.28 1.34.22.74-.1 1.43-.42 1.46-.43l.14-.06-.04-.14s-.29-1.02-.79-1.46a3.31 3.31 0 0 0-1.42-.51Z"></path></g></svg><style>@media (prefers-color-scheme: light) { :root { filter: none; } }
@media (prefers-color-scheme: dark) { :root { filter: none; } }
</style></svg>